<svg width="50" height="51" viewBox="0 0 50 51" fill="none" xmlns="http://www.w3.org/2000/svg">
<g clip-path="url(#clip0_71_1205)">
<path d="M50 42.2547V36.1638L47.6669 35.5676C47.6507 35.5282 47.6346 35.4889 47.6176 35.4499L48.8458 33.3798L44.5387 29.0727L42.4686 30.3009C42.4289 30.2839 42.3895 30.2678 42.3509 30.2516L41.7547 27.9193H35.6638L35.0676 30.2524C35.0283 30.2686 34.9889 30.2847 34.9499 30.3017L32.8798 29.0735L28.5727 33.3806L29.8009 35.4507C29.784 35.4904 29.7678 35.5298 29.7517 35.5684L27.4193 36.1646V42.2555L29.7525 42.8517C29.7686 42.891 29.7847 42.9304 29.8017 42.9694L28.5735 45.0395L32.8806 49.3466L34.9507 48.1184C34.9905 48.1353 35.0298 48.1515 35.0684 48.1676L35.6646 50.5H41.7555L42.3517 48.1668C42.3911 48.1507 42.4304 48.1345 42.4694 48.1176L44.5395 49.3458L48.8466 45.0387L47.6184 42.9686C47.6354 42.9288 47.6515 42.8895 47.6677 42.8509L50 42.2547ZM46.8203 44.7847L44.2847 47.3202L42.5612 46.2976L42.1733 46.4831C41.9233 46.6016 41.6677 46.7087 41.4047 46.8016L40.9983 46.9457L40.5033 48.8871H36.9168L36.4218 46.9457L36.0155 46.8016C35.7524 46.7095 35.4961 46.6024 35.2468 46.4831L34.8589 46.2976L33.1354 47.3202L30.5999 44.7847L31.6225 43.0611L31.437 42.6733C31.3185 42.4232 31.2114 42.1677 31.1185 41.9046L30.9743 41.4983L29.0322 41.0033V37.4168L30.9736 36.9218L31.1177 36.5154C31.2098 36.2524 31.3169 35.996 31.4362 35.7468L31.6217 35.3589L30.5991 33.6354L33.1346 31.0998L34.8581 32.1225L35.246 31.937C35.4961 31.8185 35.7516 31.7114 36.0147 31.6184L36.421 31.4743L36.916 29.5322H40.5025L40.9975 31.4735L41.4039 31.6176C41.6669 31.7098 41.9233 31.8169 42.1725 31.9362L42.5604 32.1217L44.2839 31.099L46.8195 33.6346L45.7968 35.3581L45.9823 35.746C46.1008 35.996 46.2079 36.2516 46.3009 36.5146L46.445 36.921L48.3871 37.416V41.0025L46.4458 41.4975L46.3017 41.9038C46.2095 42.1669 46.1024 42.4232 45.9831 42.6725L45.7976 43.0604L46.8203 44.7847Z" fill="#EC5050"/>
<path d="M38.7097 32.7581C35.1523 32.7581 32.2581 35.6523 32.2581 39.2097C32.2581 42.767 35.1523 45.6613 38.7097 45.6613C42.267 45.6613 45.1613 42.767 45.1613 39.2097C45.1613 35.6523 42.267 32.7581 38.7097 32.7581ZM38.7097 44.0484C36.0411 44.0484 33.871 41.8783 33.871 39.2097C33.871 36.5411 36.0411 34.371 38.7097 34.371C41.3783 34.371 43.5484 36.5411 43.5484 39.2097C43.5484 41.8783 41.3783 44.0484 38.7097 44.0484Z" fill="#EC5050"/>
<path d="M38.7097 35.9839C36.9306 35.9839 35.4839 37.4306 35.4839 39.2097C35.4839 40.9888 36.9306 42.4355 38.7097 42.4355C40.4887 42.4355 41.9355 40.9888 41.9355 39.2097C41.9355 37.4306 40.4887 35.9839 38.7097 35.9839ZM38.7097 40.8226C37.8201 40.8226 37.0968 40.0992 37.0968 39.2097C37.0968 38.3202 37.8201 37.5968 38.7097 37.5968C39.5992 37.5968 40.3226 38.3202 40.3226 39.2097C40.3226 40.0992 39.5992 40.8226 38.7097 40.8226Z" fill="#EC5050"/>
<path d="M20.4235 14.1549C20.6937 14.9468 21.1638 15.645 21.7742 16.1935V16.8775L17.9396 18.3152C16.3743 18.9015 15.3226 20.4187 15.3226 22.0903V26.3064H34.6774V22.0903C34.6774 20.4187 33.6256 18.9015 32.0612 18.3144L28.2258 16.8767V16.1935C28.8361 15.6458 29.3063 14.9476 29.5764 14.1549C31.096 13.8943 32.2581 12.5759 32.2581 10.9839V7.75806C32.2581 3.75652 29.0023 0.5 25 0.5C20.9977 0.5 17.7419 3.75652 17.7419 7.75806V10.9839C17.7419 12.5759 18.904 13.8943 20.4235 14.1549ZM26.6129 17.2122L25 19.9001L23.3871 17.2122V17.1531C23.8927 17.3331 24.4337 17.4355 25 17.4355C25.5662 17.4355 26.1073 17.3323 26.6129 17.1531V17.2122ZM22.2345 18.4266L23.8604 21.1354L22.2451 21.9426L21.2016 18.8137L22.2345 18.4266ZM33.0645 22.0903V24.6935H16.9355V22.0903C16.9355 21.087 17.5663 20.1773 18.5055 19.8249L19.6911 19.3807L21.3032 24.2179L25 22.3695L28.6968 24.2179L30.3089 19.3807L31.4953 19.8257C32.4337 20.1773 33.0645 21.087 33.0645 22.0903ZM28.7983 18.8137L27.7548 21.9434L26.1396 21.1362L27.7655 18.4266L28.7983 18.8137ZM25 15.8226C23.2209 15.8226 21.7742 14.3758 21.7742 12.5968V9.31623C22.9547 9.1918 24.0687 8.7614 25 8.02898C25.9313 8.76219 27.0453 9.1918 28.2258 9.31623V12.5968C28.2258 14.3758 26.7791 15.8226 25 15.8226ZM29.8387 12.3727V9.59581C30.3187 9.87579 30.6452 10.3905 30.6452 10.9847C30.6452 11.5789 30.3187 12.0927 29.8387 12.3727ZM25 2.1129C28.112 2.1129 30.6452 4.64527 30.6452 7.75806V8.20657C30.1687 7.92896 29.6225 7.75806 29.0322 7.75806H28.8936C27.6379 7.75806 26.4574 7.26939 25.5702 6.38143L25 5.81045L24.4298 6.38143C23.5418 7.26939 22.3621 7.75806 21.1063 7.75806H20.9677C20.3775 7.75806 19.8313 7.92896 19.3548 8.20657V7.75806C19.3548 4.64527 21.888 2.1129 25 2.1129ZM20.1613 9.59503V12.3719C19.6813 12.092 19.3548 11.5773 19.3548 10.9831C19.3548 10.3889 19.6813 9.875 20.1613 9.59503Z" fill="#EC5050"/>
<path d="M0 50.5H16.129V29.5322H0V50.5ZM1.6129 31.1451H14.5161V48.8871H1.6129V31.1451Z" fill="#EC5050"/>
<path d="M3.2258 32.7581H12.9032V34.371H3.2258V32.7581Z" fill="#EC5050"/>
<path d="M3.2258 35.9839H4.8387V37.5968H3.2258V35.9839Z" fill="#EC5050"/>
<path d="M6.4516 35.9839H12.9032V37.5968H6.4516V35.9839Z" fill="#EC5050"/>
<path d="M3.2258 39.2097H12.9032V40.8226H3.2258V39.2097Z" fill="#EC5050"/>
<path d="M3.2258 42.4354H12.9032V44.0483H3.2258V42.4354Z" fill="#EC5050"/>
<path d="M11.2903 45.6613H12.9032V47.2742H11.2903V45.6613Z" fill="#EC5050"/>
<path d="M3.2258 45.6613H9.67741V47.2742H3.2258V45.6613Z" fill="#EC5050"/>
<path d="M21.5379 36.5541L20.3976 35.4137L16.6016 39.2097L20.3976 43.0057L21.5379 41.8653L19.6888 40.0161H25.8065V38.4032H19.6888L21.5379 36.5541Z" fill="#EC5050"/>
<path d="M8.87096 13.4033C8.87096 12.9591 9.23245 12.5968 9.67741 12.5968H13.3757L11.5266 14.446L12.667 15.5864L16.4629 11.7904L12.667 7.99438L11.5266 9.13476L13.3757 10.9839H9.67741C8.34369 10.9839 7.25806 12.0696 7.25806 13.4033V27.9194H8.87096V13.4033Z" fill="#EC5050"/>
<path d="M38.7097 13.4032V23.5532L36.8605 21.704L35.7201 22.8444L39.5161 26.6404L43.3121 22.8444L42.1718 21.704L40.3226 23.5532V13.4032C40.3226 12.0695 39.2369 10.9839 37.9032 10.9839H33.871V12.5968H37.9032C38.3482 12.5968 38.7097 12.9591 38.7097 13.4032Z" fill="#EC5050"/>
</g>
<defs>
<clipPath id="clip0_71_1205">
<rect width="50" height="50" fill="white" transform="translate(0 0.5)"/>
</clipPath>
</defs>
</svg>
