<svg width="50" height="51" viewBox="0 0 50 51" fill="none" xmlns="http://www.w3.org/2000/svg">
<g clip-path="url(#clip0_281_55)">
<path d="M40 20.5C45.5143 20.5 50 16.0143 50 10.5C50 4.98568 45.5143 0.5 40 0.5C35.9957 0.5 32.5431 2.87101 30.9477 6.2784L28.2699 5.29004C28.3016 5.08496 28.3333 4.87988 28.3333 4.66667C28.3333 2.3693 26.464 0.5 24.1667 0.5C21.8693 0.5 20 2.3693 20 4.66667C20 6.96403 21.8693 8.83333 24.1667 8.83333C25.6592 8.83333 26.9609 8.03743 27.6965 6.85498L30.3699 7.84172C30.1351 8.6901 30 9.57837 30 10.5C30 11.5917 30.1815 12.6399 30.5066 13.6242L21.3416 17.5085C19.6635 14.3359 16.3326 12.1667 12.5 12.1667C11.2581 12.1667 10.0732 12.4051 8.97502 12.8201L6.66992 7.97599C7.67415 7.21427 8.33333 6.02083 8.33333 4.66667C8.33333 2.3693 6.46403 0.5 4.16667 0.5C1.8693 0.5 0 2.3693 0 4.66667C0 6.96403 1.8693 8.83333 4.16667 8.83333C4.51335 8.83333 4.84578 8.7784 5.16846 8.69743L7.4707 13.5367C4.50317 15.2734 2.5 18.4867 2.5 22.1667C2.5 25.6233 4.26351 28.6742 6.93685 30.4707L5.4126 33.2108C5.01587 33.0859 4.60327 33 4.16667 33C1.8693 33 0 34.8693 0 37.1667C0 39.464 1.8693 41.3333 4.16667 41.3333C6.46403 41.3333 8.33333 39.464 8.33333 37.1667C8.33333 35.9049 7.75757 34.7859 6.8693 34.0217L8.39681 31.276C9.65006 31.8432 11.0368 32.1667 12.5 32.1667C14.7868 32.1667 16.8901 31.3866 18.5767 30.0898L21.8567 33.6982C20.1933 35.4849 19.1667 37.8718 19.1667 40.5C19.1667 41.0098 19.2175 41.5067 19.2908 41.9958L15.4317 42.9117C14.7677 41.4916 13.335 40.5 11.6667 40.5C9.3693 40.5 7.5 42.3693 7.5 44.6667C7.5 46.964 9.3693 48.8333 11.6667 48.8333C13.964 48.8333 15.8333 46.964 15.8333 44.6667C15.8333 44.6207 15.8207 44.5776 15.8199 44.5316L19.6716 43.6185C20.9851 47.609 24.7416 50.5 29.1667 50.5C34.681 50.5 39.1667 46.0143 39.1667 40.5C39.1667 38.7902 38.7341 37.1801 37.974 35.7718L42.8691 32.589C43.6259 33.3556 44.6741 33.8333 45.8333 33.8333C48.1307 33.8333 50 31.964 50 29.6667C50 27.3693 48.1307 25.5 45.8333 25.5C43.536 25.5 41.6667 27.3693 41.6667 29.6667C41.6667 30.205 41.7773 30.7165 41.9641 31.1893L37.0577 34.379C36.0758 33.1168 34.801 32.0975 33.3333 31.4208L37.4007 20.1452C38.2308 20.369 39.0999 20.5 40 20.5ZM24.1667 7.16667C22.7885 7.16667 21.6667 6.04484 21.6667 4.66667C21.6667 3.28849 22.7885 2.16667 24.1667 2.16667C25.5448 2.16667 26.6667 3.28849 26.6667 4.66667C26.6667 6.04484 25.5448 7.16667 24.1667 7.16667ZM1.66667 4.66667C1.66667 3.28849 2.78849 2.16667 4.16667 2.16667C5.54484 2.16667 6.66667 3.28849 6.66667 4.66667C6.66667 6.04484 5.54484 7.16667 4.16667 7.16667C2.78849 7.16667 1.66667 6.04484 1.66667 4.66667ZM4.16667 39.6667C2.78849 39.6667 1.66667 38.5448 1.66667 37.1667C1.66667 35.7885 2.78849 34.6667 4.16667 34.6667C5.54484 34.6667 6.66667 35.7885 6.66667 37.1667C6.66667 38.5448 5.54484 39.6667 4.16667 39.6667ZM11.6667 47.1667C10.2885 47.1667 9.16667 46.0448 9.16667 44.6667C9.16667 43.2885 10.2885 42.1667 11.6667 42.1667C13.0448 42.1667 14.1667 43.2885 14.1667 44.6667C14.1667 46.0448 13.0448 47.1667 11.6667 47.1667ZM45.8333 27.1667C47.2115 27.1667 48.3333 28.2885 48.3333 29.6667C48.3333 31.0448 47.2115 32.1667 45.8333 32.1667C44.4552 32.1667 43.3333 31.0448 43.3333 29.6667C43.3333 28.2885 44.4552 27.1667 45.8333 27.1667ZM35.0924 17.22C35.4643 15.2925 37.1635 13.8333 39.1667 13.8333H40.8333C42.8365 13.8333 44.5357 15.2925 44.9076 17.22C43.5291 18.2291 41.8359 18.8333 40 18.8333C38.1641 18.8333 36.4709 18.2291 35.0924 17.22ZM40 12.1667C38.6218 12.1667 37.5 11.0448 37.5 9.66667C37.5 8.28849 38.6218 7.16667 40 7.16667C41.3782 7.16667 42.5 8.28849 42.5 9.66667C42.5 11.0448 41.3782 12.1667 40 12.1667ZM40 2.16667C44.5951 2.16667 48.3333 5.90487 48.3333 10.5C48.3333 12.5833 47.559 14.4868 46.2899 15.9492C45.706 14.4115 44.4885 13.1843 42.9716 12.5785C43.7093 11.8265 44.1667 10.7999 44.1667 9.66667C44.1667 7.3693 42.2974 5.5 40 5.5C37.7026 5.5 35.8333 7.3693 35.8333 9.66667C35.8333 10.7999 36.2907 11.8265 37.0284 12.5785C35.5115 13.1843 34.294 14.4115 33.7101 15.9492C32.441 14.4868 31.6667 12.5833 31.6667 10.5C31.6667 5.90487 35.4049 2.16667 40 2.16667ZM4.16667 22.1667C4.16667 17.5715 7.90487 13.8333 12.5 13.8333C17.0951 13.8333 20.8333 17.5715 20.8333 22.1667C20.8333 24.2565 20.0541 26.1649 18.7785 27.6293C18.1966 26.0859 16.9767 24.8526 15.4557 24.2451C16.1926 23.4932 16.65 22.4666 16.65 21.3333C16.65 19.036 14.7807 17.1667 12.4833 17.1667C10.186 17.1667 8.31665 19.036 8.31665 21.3333C8.31665 22.4666 8.77401 23.4932 9.51172 24.2451C7.99927 24.8481 6.78345 26.0709 6.19751 27.6025C4.93571 26.1417 4.16667 24.2443 4.16667 22.1667ZM9.98332 21.3333C9.98332 19.9552 11.1051 18.8333 12.4833 18.8333C13.8615 18.8333 14.9833 19.9552 14.9833 21.3333C14.9833 22.7115 13.8615 23.8333 12.4833 23.8333C11.1051 23.8333 9.98332 22.7115 9.98332 21.3333ZM7.57853 28.8757C7.9541 26.9534 9.65088 25.5 11.65 25.5H13.3167C15.3235 25.5 17.026 26.964 17.3926 28.8976C16.0168 29.9006 14.329 30.5 12.5 30.5C10.6576 30.5 8.95915 29.8917 7.57853 28.8757ZM24.2452 47.209C24.6208 45.2868 26.3175 43.8333 28.3167 43.8333H29.9833C31.9902 43.8333 33.6926 45.2974 34.0592 47.231C32.6835 48.234 30.9957 48.8333 29.1667 48.8333C27.3242 48.8333 25.6258 48.225 24.2452 47.209ZM29.15 42.1667C27.7718 42.1667 26.65 41.0448 26.65 39.6667C26.65 38.2885 27.7718 37.1667 29.15 37.1667C30.5282 37.1667 31.65 38.2885 31.65 39.6667C31.65 41.0448 30.5282 42.1667 29.15 42.1667ZM37.5 40.5C37.5 42.5898 36.7208 44.4982 35.4451 45.9626C34.8633 44.4193 33.6434 43.186 32.1224 42.5784C32.8593 41.8265 33.3167 40.7999 33.3167 39.6667C33.3167 37.3693 31.4473 35.5 29.15 35.5C26.8526 35.5 24.9833 37.3693 24.9833 39.6667C24.9833 40.7999 25.4407 41.8265 26.1784 42.5784C24.6659 43.1815 23.4501 44.4042 22.8642 45.9358C21.6024 44.475 20.8333 42.5776 20.8333 40.5C20.8333 35.9049 24.5715 32.1667 29.1667 32.1667C33.7618 32.1667 37.5 35.9049 37.5 40.5ZM31.7659 30.8548C30.9359 30.631 30.0667 30.5 29.1667 30.5C26.8799 30.5 24.7766 31.28 23.09 32.5768L19.81 28.9684C21.4734 27.1817 22.5 24.7948 22.5 22.1667C22.5 21.075 22.3185 20.0268 21.9934 19.0425L31.1584 15.1582C32.1851 17.0991 33.8326 18.6567 35.8341 19.5792L31.7659 30.8548Z" fill="#EC9B50"/>
</g>
<defs>
<clipPath id="clip0_281_55">
<rect width="50" height="50" fill="white" transform="translate(0 0.5)"/>
</clipPath>
</defs>
</svg>
