<svg width="50" height="51" viewBox="0 0 50 51" fill="none" xmlns="http://www.w3.org/2000/svg">
<g clip-path="url(#clip0_281_35)">
<path d="M48.8192 17.1744H46.9328C46.9103 17.1534 46.8871 17.1332 46.8615 17.1145L40.5715 12.5667C40.4479 12.477 40.2991 12.4289 40.1461 12.4289H33.4227L31.4227 11.066C30.649 10.5388 29.8316 11.7381 30.6052 12.2653L37.8031 17.1706H11.8571L24.763 8.45708C24.7885 8.45975 24.8148 8.46166 24.8412 8.46166C24.8595 8.46166 24.8774 8.46013 24.8953 8.45899L27.4226 10.1165C28.2054 10.6299 29.0019 9.41609 28.2187 8.90264L25.5667 7.16351V5.4984C25.6964 5.51442 25.8254 5.52205 25.9528 5.52205C27.1323 5.52205 28.6456 4.49285 29.7591 5.13486C30.229 5.40494 30.8474 5.0517 30.8474 4.50582V1.68942C30.8474 1.42964 30.7086 1.19008 30.4839 1.06038C29.6595 0.585832 28.7505 0.622454 27.8552 0.834169C27.1319 1.00583 26.3236 1.40408 25.5667 1.20915C25.5152 0.285997 24.1152 0.246324 24.1152 1.19504V7.14292L16.2859 12.4289H9.49541C9.34282 12.4289 9.19405 12.4774 9.07007 12.5667L2.7804 17.1145C2.75484 17.1332 2.73157 17.1534 2.70906 17.1744H0.726181C0.325256 17.1744 0.000244141 17.4994 0.000244141 17.9004V22.0534C0.000244141 22.4543 0.325256 22.7794 0.726181 22.7794H1.13741V41.6526C1.13741 42.5887 2.5889 42.5887 2.5889 41.6526V22.7794H11.4672V26.1214C11.4672 26.5223 11.7922 26.8474 12.1928 26.8474H13.7896V46.4358H12.1928C11.7922 46.4358 11.4672 46.7608 11.4672 47.1618V49.0485H2.5889V45.1362C2.5889 44.2 1.13741 44.2 1.13741 45.1362V49.7744C1.13741 50.175 1.46204 50.5 1.86296 50.5H47.7789C48.8871 50.5 48.5045 48.0689 48.5045 47.4215C48.5045 45.2311 48.5045 24.3579 48.5045 23.5587C48.5045 23.2535 48.3203 22.621 48.8192 22.7794C49.2201 22.7794 49.5448 22.4543 49.5448 22.0534V17.9004C49.5448 17.4994 49.2201 17.1744 48.8192 17.1744ZM25.5667 2.68277C26.3304 2.77623 27.0583 2.56642 27.682 2.38675C28.403 2.17885 28.921 2.0461 29.3959 2.16817V3.51247C28.6322 3.41901 27.9044 3.62844 27.2807 3.80849C26.5597 4.01601 26.0417 4.14914 25.5667 4.02669V2.68277ZM35.5528 13.8804H39.9115L44.467 17.1744H40.3864L35.5528 13.8804ZM9.73039 13.8804H14.136L9.25737 17.1744H5.17488L9.73039 13.8804ZM18.9181 49.0485H12.9187V47.8873H18.9181V49.0485ZM15.2411 46.4358V27.0408H16.6926V46.4358H15.2411ZM26.4659 48.8131H23.1761V40.3724C23.1761 39.8913 23.3855 39.4362 23.7505 39.1231C24.3708 38.5917 25.2715 38.5913 25.8917 39.1231C26.2564 39.4362 26.4662 39.8913 26.4662 40.3724V48.8131H26.4659ZM29.2723 47.1614V49.0485H27.9173V40.3724C27.9173 39.4671 27.5233 38.6104 26.8363 38.0214C25.6686 37.0204 23.9733 37.0204 22.8056 38.0214C22.1186 38.6104 21.7246 39.4671 21.7246 40.3724V49.0485H20.3696V47.1614C20.3696 46.7608 20.0446 46.4358 19.644 46.4358H18.1441V26.8474H26.4659C27.4024 26.8474 27.4024 25.3959 26.4659 25.3959H12.9187V22.7832H36.7232V25.3959H30.3366C29.4005 25.3959 29.4005 26.8474 30.3366 26.8474H31.5947V46.4358H29.9979C29.597 46.4358 29.2723 46.7608 29.2723 47.1614ZM34.4977 27.0408V46.4358H33.0462V27.0408H34.4977ZM36.7232 49.0485H30.7238V47.8873H36.7232V49.0485ZM47.053 49.0485H38.1747V47.1614C38.1747 46.7608 37.8501 46.4358 37.4491 46.4358H35.9492V26.8474H37.4491C37.8501 26.8474 38.1747 26.5223 38.1747 26.1214V22.779H47.053V49.0485ZM48.0933 21.3275H1.45174V18.6259H48.0933V21.3275Z" fill="#EC5050"/>
<path d="M24.8207 28.976C23.2468 28.976 21.9662 30.2565 21.9662 31.8309C21.9662 33.4048 23.2468 34.6854 24.8207 34.6854C26.3947 34.6854 27.6753 33.4048 27.6753 31.8309C27.6753 30.2565 26.3947 28.976 24.8207 28.976ZM24.8207 33.2339C24.0471 33.2339 23.4177 32.6045 23.4177 31.8309C23.4177 31.0573 24.0471 30.4274 24.8207 30.4274C25.5943 30.4274 26.2238 31.0573 26.2238 31.8309C26.2238 32.6045 25.5943 33.2339 24.8207 33.2339Z" fill="#EC5050"/>
<path d="M40.1501 34.8746H42.7791C43.1801 34.8746 43.5047 34.5496 43.5047 34.1486V28.8535C43.5047 27.7285 42.5896 26.8134 41.4646 26.8134C40.3396 26.8134 39.4245 27.7285 39.4245 28.8535V34.1486C39.4245 34.5496 39.7491 34.8746 40.1501 34.8746ZM40.876 28.8535C40.876 28.5288 41.14 28.2648 41.4646 28.2648C41.7892 28.2648 42.0532 28.5288 42.0532 28.8535V33.4231H40.876V28.8535Z" fill="#EC5050"/>
<path d="M40.1501 45.4222H42.7791C43.1801 45.4222 43.5047 45.0972 43.5047 44.6962V39.4011C43.5047 38.2761 42.5896 37.361 41.4646 37.361C40.3396 37.361 39.4245 38.2761 39.4245 39.4011V44.6962C39.4245 45.0972 39.7491 45.4222 40.1501 45.4222ZM40.876 39.4011C40.876 39.0764 41.14 38.8125 41.4646 38.8125C41.7892 38.8125 42.0532 39.0764 42.0532 39.4011V43.9707H40.876V39.4011Z" fill="#EC5050"/>
<path d="M9.29756 34.8746C9.69849 34.8746 10.0235 34.5496 10.0235 34.1486V28.8535C10.0235 27.7285 9.10835 26.8134 7.9834 26.8134C6.85844 26.8134 5.9433 27.7285 5.9433 28.8535V34.1486C5.9433 34.5496 6.26793 34.8746 6.66885 34.8746H9.29756ZM7.39479 28.8535C7.39479 28.5288 7.65877 28.2648 7.9834 28.2648C8.30803 28.2648 8.57201 28.5288 8.57201 28.8535V33.4231H7.39479V28.8535Z" fill="#EC5050"/>
<path d="M5.9433 44.6962C5.9433 45.0972 6.26831 45.4222 6.66885 45.4222H9.29756C9.69849 45.4222 10.0235 45.0972 10.0235 44.6962V39.4011C10.0235 38.2761 9.10835 37.361 7.9834 37.361C6.85844 37.361 5.9433 38.2761 5.9433 39.4011V44.6962ZM7.39479 39.4011C7.39479 39.0764 7.65877 38.8125 7.9834 38.8125C8.30803 38.8125 8.57201 39.0764 8.57201 39.4011V43.9707H7.39479V39.4011Z" fill="#EC5050"/>
</g>
<defs>
<clipPath id="clip0_281_35">
<rect width="50" height="50" fill="white" transform="translate(0 0.5)"/>
</clipPath>
</defs>
</svg>
