<svg width="50" height="51" viewBox="0 0 50 51" fill="none" xmlns="http://www.w3.org/2000/svg">
<g clip-path="url(#clip0_281_380)">
<path d="M12.5513 15.2181H33.4385C33.9824 15.2181 34.4233 14.7772 34.4233 14.2333C34.4233 13.6893 33.9824 13.2484 33.4385 13.2484H12.5513C12.0073 13.2484 11.5664 13.6893 11.5664 14.2333C11.5664 14.7772 12.0073 15.2181 12.5513 15.2181Z" fill="#EC5050"/>
<path d="M33.4384 18.1658H26.6327C26.0887 18.1658 25.6478 18.6067 25.6478 19.1506C25.6478 19.6946 26.0887 20.1355 26.6327 20.1355H33.4384C33.9823 20.1355 34.4232 19.6946 34.4232 19.1506C34.4232 18.6067 33.9823 18.1658 33.4384 18.1658Z" fill="#EC5050"/>
<path d="M12.5513 20.1355H19.7524C20.2964 20.1355 20.7373 19.6946 20.7373 19.1506C20.7373 18.6067 20.2964 18.1658 19.7524 18.1658H12.5513C12.0073 18.1658 11.5664 18.6067 11.5664 19.1506C11.5664 19.6946 12.0073 20.1355 12.5513 20.1355Z" fill="#EC5050"/>
<path d="M12.5513 25.0529H33.4385C33.9824 25.0529 34.4233 24.6119 34.4233 24.068C34.4233 23.524 33.9824 23.0831 33.4385 23.0831H12.5513C12.0073 23.0831 11.5664 23.524 11.5664 24.068C11.5664 24.6119 12.0073 25.0529 12.5513 25.0529Z" fill="#EC5050"/>
<path d="M12.5513 29.9701H14.5175C15.0614 29.9701 15.5023 29.5292 15.5023 28.9852C15.5023 28.4413 15.0614 28.0004 14.5175 28.0004H12.5513C12.0073 28.0004 11.5664 28.4413 11.5664 28.9852C11.5664 29.5292 12.0073 29.9701 12.5513 29.9701Z" fill="#EC5050"/>
<path d="M27.5037 28.0004H19.4342C18.8903 28.0004 18.4493 28.4413 18.4493 28.9852C18.4493 29.5292 18.8903 29.9701 19.4342 29.9701H27.5037C28.0477 29.9701 28.4886 29.5292 28.4886 28.9852C28.4886 28.4413 28.0477 28.0004 27.5037 28.0004Z" fill="#EC5050"/>
<path d="M25.5601 33.9026C25.5601 33.3586 25.1191 32.9177 24.5752 32.9177H12.5513C12.0073 32.9177 11.5664 33.3586 11.5664 33.9026C11.5664 34.4465 12.0073 34.8874 12.5513 34.8874H24.5753C25.1191 34.8874 25.5601 34.4464 25.5601 33.9026Z" fill="#EC5050"/>
<path d="M12.5513 10.2981H24.5918C25.1357 10.2981 25.5767 9.85718 25.5767 9.31323C25.5767 8.76929 25.1357 8.32837 24.5918 8.32837H12.5513C12.0073 8.32837 11.5664 8.76929 11.5664 9.31323C11.5664 9.85718 12.0073 10.2981 12.5513 10.2981Z" fill="#EC5050"/>
<path d="M47.7244 31.3171L40.4242 27.3767V10.0078C40.4242 9.97236 40.4221 9.9374 40.4184 9.90283C40.4176 9.89551 40.4161 9.88828 40.4151 9.88096C40.4116 9.85361 40.4075 9.82637 40.4017 9.7998C40.4 9.7916 40.3974 9.78359 40.3955 9.77539C40.3893 9.75 40.3827 9.7249 40.3746 9.70029C40.3716 9.69121 40.368 9.68242 40.3648 9.67353C40.3565 9.65049 40.3477 9.62773 40.3377 9.60557C40.3333 9.5956 40.3283 9.58584 40.3235 9.57598C40.3135 9.55557 40.3031 9.53555 40.2918 9.51602C40.2856 9.50537 40.2792 9.49492 40.2726 9.48447C40.2613 9.4665 40.2495 9.44893 40.2371 9.43174C40.2293 9.421 40.2215 9.41045 40.2133 9.4C40.2004 9.38369 40.187 9.36797 40.1731 9.35244C40.1643 9.34258 40.1557 9.33262 40.1464 9.32314C40.1307 9.30693 40.1141 9.2916 40.0973 9.27647C40.0907 9.27051 40.0848 9.26387 40.078 9.25811L30.0755 0.735254C30.0735 0.733594 30.0713 0.732129 30.0693 0.730371C30.0588 0.721582 30.0479 0.713672 30.0371 0.705273C30.024 0.695215 30.011 0.685059 29.9974 0.675684C29.9851 0.66709 29.9723 0.659277 29.9596 0.65127C29.9469 0.643359 29.9343 0.635352 29.9212 0.628027C29.9073 0.620117 29.8931 0.612891 29.8788 0.605664C29.8663 0.599414 29.8538 0.593164 29.841 0.5875C29.8259 0.580664 29.8107 0.574414 29.7952 0.568359C29.7823 0.563379 29.7694 0.558594 29.7563 0.554199C29.7408 0.548828 29.7251 0.54375 29.7092 0.53916C29.6951 0.535059 29.6807 0.531641 29.6664 0.528125C29.6513 0.524512 29.6363 0.520801 29.6209 0.517871C29.6035 0.514551 29.5859 0.512207 29.5682 0.509863C29.5555 0.508203 29.543 0.505957 29.5302 0.504785C29.4995 0.501758 29.4682 0.5 29.4368 0.5H8.91743C7.07056 0.5 5.56812 2.00439 5.56812 3.85361V5.84346H3.84009C1.99175 5.84346 0.488037 7.34785 0.488037 9.19707V47.1465C0.488037 48.9956 1.99175 50.5 3.84009 50.5H39.4392C39.4783 50.5 39.5167 50.4971 39.5545 50.4927C39.9912 50.4646 40.438 50.2807 41.0121 49.937C43.3569 48.5354 45.4132 46.2056 47.1241 43.0126C48.7118 40.0507 49.5373 36.9576 49.5113 34.0681C49.4958 32.3526 48.8878 31.945 47.7244 31.3171ZM30.4216 3.61787L36.765 9.02295H32.3432C31.2836 9.02295 30.4216 8.16133 30.4216 7.10225V3.61787ZM2.45776 47.1464V9.19707C2.45776 8.43398 3.07788 7.81318 3.84009 7.81318H5.56812V41.8002C5.56812 43.6493 7.07056 45.1538 8.91743 45.1538H13.804C14.3479 45.1538 14.7888 44.7129 14.7888 44.1689C14.7888 43.625 14.3479 43.1841 13.804 43.1841H8.91743C8.15669 43.1841 7.53784 42.5633 7.53784 41.8002V3.85361C7.53784 3.09053 8.15669 2.46973 8.91743 2.46973H28.4519V7.10225C28.4519 9.24746 30.1976 10.9927 32.3432 10.9927H38.4543V27.3767L31.1849 31.3004L31.1559 31.316C29.9894 31.9439 29.38 32.3516 29.3645 34.068C29.3385 36.9576 30.164 40.0506 31.7516 43.0124C31.7828 43.0706 31.8149 43.1264 31.8463 43.184H22.5674C22.0235 43.184 21.5826 43.6249 21.5826 44.1688C21.5826 44.7128 22.0235 45.1537 22.5674 45.1537H33.0387C33.9359 46.4837 34.9096 47.6107 35.9529 48.5302H3.84009C3.07788 48.5303 2.45776 47.9096 2.45776 47.1464ZM45.3879 42.0822C43.8479 44.9564 42.0357 47.0305 40.0008 48.2468C39.6045 48.484 39.4767 48.5263 39.4404 48.5304C39.4401 48.5304 39.4399 48.5304 39.4396 48.5304C39.3984 48.5262 39.2703 48.4836 38.8748 48.2468C38.8747 48.2467 38.8745 48.2466 38.8743 48.2465C36.8687 47.0475 35.006 44.9159 33.4876 42.082C32.0557 39.4107 31.311 36.6456 31.3341 34.0857C31.3388 33.5602 31.4002 33.4729 31.4029 33.4695C31.4661 33.3859 31.7973 33.2076 32.0896 33.0504L39.4393 29.0833L46.7588 33.0341L46.7888 33.0503C47.0798 33.2074 47.4098 33.3855 47.4727 33.4688C47.4753 33.4724 47.5369 33.5598 47.5416 34.0857C47.5647 36.6457 46.82 39.4107 45.3879 42.0822Z" fill="#EC5050"/>
<path d="M18.187 43.1841H18.1815C17.6375 43.1841 17.1993 43.625 17.1993 44.1689C17.1993 44.7129 17.643 45.1538 18.1869 45.1538C18.7309 45.1538 19.1718 44.7129 19.1718 44.1689C19.1718 43.625 18.731 43.1841 18.187 43.1841Z" fill="#EC5050"/>
<path d="M41.7757 35.551L38.346 39.073L37.071 37.8773C36.6743 37.5054 36.051 37.5254 35.6789 37.9221C35.3069 38.3188 35.3269 38.9421 35.7237 39.3141L37.7036 41.1709C37.8935 41.3489 38.1355 41.4374 38.3772 41.4374C38.6338 41.4374 38.8901 41.3376 39.0829 41.1396L43.1869 36.9252C43.5663 36.5355 43.558 35.912 43.1684 35.5325C42.7786 35.1531 42.155 35.1614 41.7757 35.551Z" fill="#EC5050"/>
</g>
<defs>
<clipPath id="clip0_281_380">
<rect width="50" height="50" fill="white" transform="translate(0 0.5)"/>
</clipPath>
</defs>
</svg>
