<svg width="50" height="51" viewBox="0 0 50 51" fill="none" xmlns="http://www.w3.org/2000/svg">
<g clip-path="url(#clip0_281_185)">
<path d="M11.8679 15.1084H24.286C25.2329 15.1084 25.2329 13.6436 24.286 13.6436H11.8679C10.9208 13.6436 10.9208 15.1084 11.8679 15.1084Z" fill="#1E922A"/>
<path d="M11.8679 20.7925H11.8684L22.0404 20.7849C22.9654 20.7842 22.9439 19.3201 22.0392 19.3201L11.8673 19.3277C10.9206 19.3284 10.9213 20.7925 11.8679 20.7925Z" fill="#1E922A"/>
<path d="M11.8678 26.4766H11.8685L20.3803 26.469C21.3053 26.4681 21.2836 25.0042 20.3789 25.0042L11.8671 25.0118C10.9204 25.0126 10.9212 26.4766 11.8678 26.4766Z" fill="#1E922A"/>
<path d="M11.8679 32.1606H11.8685L20.5414 32.1531C21.4664 32.1522 21.4448 30.6882 20.5401 30.6882L11.8672 30.6958C10.9206 30.6966 10.9213 32.1606 11.8679 32.1606Z" fill="#1E922A"/>
<path d="M24.0871 36.3723C24.087 36.3723 24.0868 36.3723 24.0867 36.3723L11.8674 36.3798C10.9424 36.3805 10.9637 37.8447 11.8683 37.8447L24.0876 37.8372C25.0342 37.8365 25.0338 36.3723 24.0871 36.3723Z" fill="#1E922A"/>
<path d="M23.9261 42.0564C23.926 42.0564 23.9258 42.0564 23.9256 42.0564L11.8673 42.0639C10.9423 42.0646 10.9636 43.5288 11.8683 43.5288L23.9266 43.5212C24.8733 43.5206 24.8728 42.0564 23.9261 42.0564Z" fill="#1E922A"/>
<path d="M49.9996 26.5519C50.0002 26.4565 49.9889 26.3619 49.9562 26.2719L46.2777 16.1577C46.1543 15.8547 45.9103 15.6741 45.546 15.6159H42.0093C41.6801 13.3495 39.8718 11.5572 37.598 11.2515V7.57803C37.598 6.64004 36.835 5.87676 35.897 5.87676H34.8406V4.9624C34.8406 4.02441 34.0776 3.26113 33.1397 3.26113H32.0804V2.20127C32.0804 1.26318 31.3174 0.5 30.3795 0.5H1.70125C0.763354 0.5 0.000366211 1.26318 0.000366211 2.20127V43.4221C0.000366211 44.3601 0.763354 45.1233 1.70125 45.1233H2.76052V46.1831C2.76052 47.1211 3.52351 47.8844 4.46365 47.8844L5.51785 47.8812V48.7988C5.51785 49.7368 6.28084 50.5001 7.21873 50.5001H30.0976C30.2944 50.5001 30.4802 50.4176 30.6206 50.2805L37.3821 43.551C37.5203 43.4136 37.5978 43.2268 37.5978 43.0319V37.941H38.9878C39.9347 37.941 39.9347 36.4762 38.9878 36.4762H29.9257C30.241 35.4294 31.2139 34.6646 32.3621 34.6646H41.4529C42.6011 34.6646 43.574 35.4294 43.8893 36.4762H42.8564C41.9095 36.4762 41.9095 37.941 42.8564 37.941H44.7292C45.1337 37.941 45.4616 37.6132 45.4616 37.2086C45.4616 34.9981 43.6633 33.1998 41.4529 33.1998H39.0374V17.0924L44.5653 17.0809L41.2225 26.272C41.1893 26.3636 41.1741 26.4646 41.1795 26.5619C41.201 28.9759 43.1705 30.9332 45.5894 30.9332C48.0084 30.9332 49.9779 28.9758 49.9994 26.5619C49.9995 26.5585 49.9995 26.5552 49.9996 26.5519ZM48.2221 25.7897H42.9566L45.5894 18.5509L48.2221 25.7897ZM40.5232 15.6158H33.2922C33.6373 13.9359 35.1272 12.6687 36.9077 12.6687C38.6882 12.6687 40.178 13.9359 40.5232 15.6158ZM4.4615 46.4194C4.33132 46.4194 4.22537 46.3134 4.22537 46.183V16.2249C4.22537 15.2779 2.76052 15.2779 2.76052 16.2249V43.6584H1.70125C1.57107 43.6584 1.46521 43.5523 1.46521 43.422V2.20127C1.46521 2.0709 1.57107 1.96484 1.70125 1.96484H30.3795C30.5096 1.96484 30.6155 2.0709 30.6155 2.20127V3.26113H4.4615C3.52361 3.26113 2.76052 4.02432 2.76052 4.9624V12.5631C2.76052 13.5101 4.22537 13.5101 4.22537 12.5631V4.9623C4.22537 4.83193 4.33123 4.72588 4.4615 4.72588H33.1396C33.2698 4.72588 33.3757 4.83193 33.3757 4.9623V5.87666H7.21882C6.28093 5.87666 5.51794 6.63984 5.51794 7.57793V46.4162L4.4615 46.4194ZM30.8302 47.9937V43.9378C30.8302 43.8074 30.936 43.7014 31.0663 43.7014H35.103L30.8302 47.9937ZM36.2427 33.1925V17.1032H37.5726V33.1925H36.2427ZM34.7778 33.1997H32.3623C30.1519 33.1997 28.3536 34.998 28.3536 37.2085C28.3536 37.6131 28.6815 37.9409 29.086 37.9409H36.1332V42.2365H31.0663C30.1284 42.2365 29.3653 42.9997 29.3653 43.9378V49.0352H7.21882C7.08865 49.0352 6.98279 48.9291 6.98279 48.7987V7.57803C6.98279 7.44766 7.08865 7.3416 7.21882 7.3416H35.897C36.0272 7.3416 36.1332 7.44766 36.1332 7.57803V11.2622C33.8989 11.6002 32.131 13.3774 31.806 15.6159H28.2692C27.9049 15.6741 27.6609 15.8547 27.5375 16.1577L23.859 26.2719C23.8258 26.3635 23.8105 26.4645 23.8159 26.5618C23.8374 28.9758 25.8069 30.9331 28.2259 30.9331C30.6448 30.9331 32.6143 28.9757 32.6358 26.5618C32.6411 26.4646 32.626 26.3635 32.5928 26.2719L29.25 17.0808L34.7779 17.0923V33.1997H34.7778ZM25.593 25.7897L28.2259 18.5509L30.8587 25.7897H25.593ZM31.0799 27.2546C30.7534 28.526 29.5976 29.4683 28.2259 29.4683C26.8541 29.4683 25.6983 28.526 25.3719 27.2546H31.0799ZM45.5894 29.4683C44.2177 29.4683 43.0619 28.526 42.7354 27.2546H48.4433C48.117 28.5259 46.9612 29.4683 45.5894 29.4683Z" fill="#1E922A"/>
</g>
<defs>
<clipPath id="clip0_281_185">
<rect width="50" height="50" fill="white" transform="translate(0 0.5)"/>
</clipPath>
</defs>
</svg>
