<svg width="50" height="51" viewBox="0 0 50 51" fill="none" xmlns="http://www.w3.org/2000/svg">
<g clip-path="url(#clip0_281_72)">
<path d="M29.8838 32.0087C30.5026 32.0087 31.0815 31.7647 31.5136 31.3217L35.3526 27.3858C36.2287 26.4874 36.2106 25.0436 35.312 24.1673C34.4135 23.2913 32.9694 23.3094 32.0933 24.2078L29.8412 26.5166L29.4467 26.133C28.5469 25.2584 27.1029 25.2784 26.2278 26.1781C25.353 27.0778 25.3733 28.5215 26.2731 29.3964L28.2971 31.3644C28.7243 31.7798 29.2879 32.0087 29.8838 32.0087ZM27.2804 27.2013C27.5913 26.8816 28.1043 26.875 28.4235 27.1854L29.3434 28.0798C29.6336 28.3622 30.0977 28.3558 30.3805 28.0661L33.1442 25.2327C33.4555 24.9134 33.9683 24.9073 34.2872 25.2182C34.6064 25.5295 34.6127 26.0421 34.3017 26.3612L30.4627 30.297C30.166 30.6143 29.6256 30.6211 29.3204 30.3123L27.2964 28.3443C26.977 28.0336 26.9696 27.5208 27.2804 27.2013Z" fill="#495A7E"/>
<path d="M24.2105 32.5081C23.9663 32.1846 23.5063 32.1202 23.1824 32.3643C22.8588 32.6084 22.7945 33.0686 23.0386 33.3921C23.3059 33.7463 23.6016 34.086 23.9172 34.4016C25.7218 36.206 28.1211 37.1996 30.6732 37.1996C33.2252 37.1996 35.6244 36.206 37.429 34.4016C39.2337 32.5973 40.2275 30.1983 40.2275 27.6466C40.2275 25.0949 39.2336 22.6959 37.429 20.8916C33.7037 17.1669 27.6425 17.167 23.9172 20.8916C21.3775 23.431 20.4787 27.1354 21.5718 30.5592C21.695 30.9454 22.1083 31.1582 22.4942 31.0352C22.8803 30.912 23.0935 30.499 22.9701 30.1129C22.0448 27.2147 22.8055 24.0789 24.9553 21.9295C28.108 18.7771 33.2383 18.7771 36.391 21.9295C37.9184 23.4567 38.7596 25.487 38.7596 27.6467C38.7596 29.8064 37.9184 31.8368 36.391 33.3639C34.8638 34.891 32.8331 35.7321 30.6732 35.7321C28.5133 35.7321 26.4825 34.8911 24.9552 33.3639C24.6874 33.0959 24.4368 32.8081 24.2105 32.5081Z" fill="#495A7E"/>
<path d="M48.9902 41.0538L44.3599 36.424C44.0732 36.1375 43.6085 36.1374 43.3218 36.424L43.2935 36.4523L41.5115 34.6707C42.7094 32.824 43.4231 30.6903 43.5635 28.4635C43.589 28.059 43.2816 27.7104 42.8772 27.6849C42.473 27.6603 42.1241 27.9667 42.0984 28.3711C41.9232 31.1513 40.7404 33.7685 38.7682 35.7404C36.5393 37.9691 33.6122 39.0848 30.6843 39.0876C30.6806 39.0875 30.677 39.087 30.6731 39.087H30.6149C27.7027 39.0724 24.7951 37.9571 22.5781 35.7404C20.4158 33.5785 19.225 30.704 19.225 27.6465C19.225 24.589 20.4158 21.7145 22.5781 19.5525C27.0417 15.0895 34.3046 15.0895 38.7682 19.5525C40.4307 21.2148 41.5277 23.3116 41.9409 25.6164C42.0125 26.0153 42.3941 26.2804 42.7929 26.2093C43.1919 26.1378 43.4573 25.7564 43.3858 25.3574C42.9194 22.7562 41.6816 20.3899 39.8062 18.5146C38.8769 17.5854 37.8398 16.8283 36.735 16.2421V10.3274C36.7344 10.1343 36.6564 9.94522 36.52 9.8085L27.4253 0.714941C27.2885 0.578809 27.0995 0.500488 26.9062 0.5H2.20186C0.987799 0.5 6.10352e-06 1.4876 6.10352e-06 2.70156V8.86982C6.10352e-06 9.2751 0.328522 9.60371 0.73399 9.60371C1.13936 9.60371 1.46797 9.2752 1.46797 8.86982V2.70156C1.46797 2.29688 1.79717 1.96768 2.20196 1.96768H26.1725V8.85977C26.1725 10.0737 27.1603 11.0613 28.3743 11.0613H35.2673V15.5774C33.8353 15.0349 32.3255 14.7562 30.8133 14.7398C30.8061 14.7389 30.799 14.7374 30.7915 14.7374H14.4048C13.9994 14.7374 13.6708 15.066 13.6708 15.4713C13.6708 15.8766 13.9994 16.2052 14.4048 16.2052H24.6808C23.6338 16.7526 22.6469 17.4534 21.7531 18.3072H14.4048C13.9994 18.3072 13.6708 18.6358 13.6708 19.0411C13.6708 19.4464 13.9994 19.775 14.4048 19.775H20.4321C19.2341 21.3269 18.4153 23.1142 18.0234 25.0221H14.4049C13.9995 25.0221 13.6709 25.3507 13.6709 25.756C13.6709 26.1612 13.9995 26.4898 14.4049 26.4898H17.8091C17.7753 26.8724 17.7574 27.2581 17.7574 27.6467C17.7574 27.9654 17.7691 28.2824 17.7918 28.5972H14.405C13.9996 28.5972 13.671 28.9258 13.671 29.3311C13.671 29.7363 13.9996 30.0649 14.405 30.0649H17.9831C18.3574 32.0514 19.192 33.9127 20.4344 35.521H14.405C13.9996 35.521 13.671 35.8495 13.671 36.2549C13.671 36.6603 13.9996 36.9888 14.405 36.9888H21.7561C22.6485 37.841 23.6339 38.5406 24.679 39.0874H14.4046C13.9992 39.0874 13.6706 39.416 13.6706 39.8213C13.6706 40.2266 13.9992 40.5552 14.4046 40.5552H30.6731C32.2319 40.555 33.7908 40.275 35.2671 39.7157V48.2988C35.2671 48.7034 34.9379 49.0327 34.5331 49.0327H2.20186C1.79717 49.0327 1.46788 48.7035 1.46788 48.2988V11.8057C1.46788 11.4004 1.13926 11.0718 0.733893 11.0718C0.328522 11.0718 -9.15527e-05 11.4003 -9.15527e-05 11.8057V48.2988C6.10352e-06 49.5124 0.987799 50.5 2.20186 50.5H34.5332C35.7473 50.5 36.7351 49.5124 36.7351 48.2984V39.0507C37.0626 38.8769 37.3841 38.6878 37.6986 38.4839L39.4802 40.2651C39.1719 40.5343 39.1554 41.0472 39.4518 41.3313L44.0822 45.9612C45.3739 47.3074 47.6985 47.3073 48.9901 45.9612C50.3366 44.6696 50.3365 42.3453 48.9902 41.0538ZM28.3742 9.59365C27.9695 9.59365 27.6402 9.26445 27.6402 8.85977V3.00557L34.2292 9.59365H28.3742ZM38.8959 37.6053C39.2091 37.3464 39.5132 37.0712 39.8062 36.7783C40.0974 36.4871 40.373 36.1831 40.6331 35.8682L42.2554 37.4901L40.5181 39.2271L38.8959 37.6053ZM47.9523 44.9233C47.2069 45.7002 45.8656 45.7 45.1202 44.9233L41.0087 40.8124L43.8408 37.9807L47.9524 42.0916C48.7291 42.837 48.7292 44.178 47.9523 44.9233Z" fill="#495A7E"/>
<path d="M6.66056 20.5003H9.8715C10.7768 20.5003 11.5133 19.764 11.5133 18.8589V15.6483C11.5133 14.7432 10.7769 14.0068 9.8715 14.0068H6.66056C5.75538 14.0068 5.01886 14.7432 5.01886 15.6483V18.8589C5.01886 19.764 5.75538 20.5003 6.66056 20.5003ZM6.48683 15.6483C6.48683 15.5525 6.56486 15.4746 6.66056 15.4746H9.8715C9.96739 15.4746 10.0453 15.5525 10.0453 15.6483V18.8589C10.0453 18.9547 9.9673 19.0326 9.8715 19.0326H6.66056C6.56476 19.0326 6.48683 18.9547 6.48683 18.8589V15.6483Z" fill="#495A7E"/>
<path d="M5.01886 29.1486C5.01886 30.0537 5.75529 30.79 6.66056 30.79H9.8715C10.7768 30.79 11.5133 30.0537 11.5133 29.1486V25.938C11.5133 25.033 10.7769 24.2966 9.8715 24.2966H6.66056C5.75538 24.2966 5.01886 25.033 5.01886 25.938V29.1486ZM6.48683 25.938C6.48683 25.8422 6.56486 25.7643 6.66056 25.7643H9.8715C9.96739 25.7643 10.0453 25.8422 10.0453 25.938V29.1486C10.0453 29.2444 9.9673 29.3223 9.8715 29.3223H6.66056C6.56476 29.3223 6.48683 29.2444 6.48683 29.1486V25.938Z" fill="#495A7E"/>
<path d="M5.01886 39.6475C5.01886 40.5525 5.75529 41.2889 6.66056 41.2889H9.8715C10.7768 41.2889 11.5133 40.5525 11.5133 39.6475V36.4369C11.5133 35.5317 10.7769 34.7954 9.8715 34.7954H6.66056C5.75538 34.7954 5.01886 35.5317 5.01886 36.4369V39.6475ZM6.48683 36.4369C6.48683 36.3411 6.56486 36.2632 6.66056 36.2632H9.8715C9.96739 36.2632 10.0453 36.3411 10.0453 36.4369V39.6475C10.0453 39.7433 9.9673 39.8212 9.8715 39.8212H6.66056C6.56476 39.8212 6.48683 39.7433 6.48683 39.6475V36.4369Z" fill="#495A7E"/>
</g>
<defs>
<clipPath id="clip0_281_72">
<rect width="50" height="50" fill="white" transform="translate(0 0.5)"/>
</clipPath>
</defs>
</svg>
